<svg width="155" height="27" viewBox="0 0 155 27" fill="none" xmlns="http://www.w3.org/2000/svg">
<path d="M16.5151 20.0276H13.3951V18.8756C12.8511 19.3396 12.2351 19.7076 11.5471 19.9796C10.8591 20.2356 10.1391 20.3636 9.38706 20.3636C8.97106 20.3636 8.57106 20.3236 8.18706 20.2436C7.80306 20.1796 7.42706 20.0836 7.05906 19.9556C6.69106 19.8276 6.34706 19.6676 6.02706 19.4756C5.70706 19.2836 5.40306 19.0676 5.11506 18.8276C4.82706 18.5876 4.55506 18.3236 4.29906 18.0356C4.05906 17.7476 3.84306 17.4436 3.65106 17.1236C3.45906 16.8036 3.29906 16.4676 3.17106 16.1156C3.04306 15.7476 2.93906 15.3796 2.85906 15.0116C2.79506 14.6276 2.76306 14.2356 2.76306 13.8356C2.76306 13.4356 2.79506 13.0436 2.85906 12.6596C2.93906 12.2756 3.04306 11.9076 3.17106 11.5556C3.29906 11.2036 3.45906 10.8676 3.65106 10.5476C3.84306 10.2276 4.05906 9.92364 4.29906 9.63564C4.55506 9.34764 4.82706 9.08364 5.11506 8.84364C5.40306 8.60364 5.70706 8.38764 6.02706 8.19564C6.34706 8.00364 6.69106 7.84364 7.05906 7.71564C7.42706 7.58764 7.80306 7.49164 8.18706 7.42764C8.57106 7.34764 8.97106 7.30764 9.38706 7.30764C10.1391 7.30764 10.8511 7.44364 11.5231 7.71564C12.2111 7.97164 12.8271 8.32364 13.3711 8.77164V3.22764H16.5151V20.0276ZM13.4191 13.8356C13.4191 12.7796 13.0511 11.8916 12.3151 11.1716C11.5791 10.4356 10.6911 10.0676 9.65106 10.0676C8.62706 10.0676 7.73906 10.4356 6.98706 11.1716C6.25106 11.8916 5.88306 12.7796 5.88306 13.8356C5.88306 14.8756 6.25106 15.7716 6.98706 16.5236C7.73906 17.2596 8.62706 17.6276 9.65106 17.6276C10.6911 17.6276 11.5791 17.2596 12.3151 16.5236C13.0511 15.7716 13.4191 14.8756 13.4191 13.8356Z" fill="white"/>
<path d="M18.7118 13.8116C18.7118 13.4276 18.7438 13.0516 18.8078 12.6836C18.8718 12.3156 18.9678 11.9556 19.0958 11.6036C19.2238 11.2516 19.3758 10.9156 19.5518 10.5956C19.7438 10.2756 19.9518 9.97164 20.1758 9.68364C20.4158 9.39564 20.6718 9.13164 20.9438 8.89164C21.2318 8.65164 21.5278 8.43564 21.8318 8.24364C22.1518 8.05164 22.4878 7.89164 22.8398 7.76364C23.2078 7.61964 23.5838 7.51564 23.9678 7.45164C24.3518 7.37164 24.7438 7.33164 25.1438 7.33164C25.6078 7.33164 26.0558 7.37164 26.4878 7.45164C26.9198 7.53164 27.3278 7.65164 27.7118 7.81164C28.0958 7.97164 28.4558 8.17164 28.7918 8.41164C29.1278 8.63564 29.4318 8.89964 29.7038 9.20364C29.9918 9.49164 30.2478 9.81164 30.4718 10.1636C30.6958 10.5156 30.8798 10.8916 31.0238 11.2916C31.1838 11.6916 31.3038 12.1156 31.3838 12.5636C31.4638 13.0116 31.5038 13.4756 31.5038 13.9556V14.8676H21.9278C22.1358 15.6676 22.5518 16.3316 23.1758 16.8596C23.7998 17.3876 24.5438 17.6516 25.4078 17.6516C26.0638 17.6516 26.6558 17.5316 27.1838 17.2916C27.7278 17.0356 28.2238 16.6116 28.6718 16.0196L30.8558 17.6516C30.2318 18.4996 29.4558 19.1636 28.5278 19.6436C27.6158 20.1076 26.5838 20.3396 25.4318 20.3396C25.0158 20.3396 24.6078 20.3076 24.2078 20.2436C23.8078 20.1796 23.4238 20.0836 23.0558 19.9556C22.6878 19.8276 22.3358 19.6756 21.9998 19.4996C21.6638 19.3076 21.3518 19.0996 21.0638 18.8756C20.7758 18.6356 20.5038 18.3796 20.2478 18.1076C20.0078 17.8196 19.7918 17.5156 19.5998 17.1956C19.4078 16.8756 19.2478 16.5396 19.1198 16.1876C18.9918 15.8196 18.8878 15.4356 18.8078 15.0356C18.7438 14.6356 18.7118 14.2276 18.7118 13.8116ZM25.0718 10.0196C24.3358 10.0196 23.6878 10.2436 23.1278 10.6916C22.5678 11.1236 22.1838 11.7156 21.9758 12.4676H28.3358C28.1118 11.6996 27.6958 11.0996 27.0878 10.6676C26.4958 10.2356 25.8238 10.0196 25.0718 10.0196Z" fill="white"/>
<path d="M38.7492 20.3156C37.1332 20.3156 35.8292 19.9156 34.8372 19.1156C33.8612 18.2996 33.2532 17.2996 33.0132 16.1156H35.9892C36.1492 16.7396 36.4772 17.1956 36.9732 17.4836C37.4852 17.7556 38.0772 17.8916 38.7492 17.8916C39.3252 17.8916 39.7652 17.7716 40.0692 17.5316C40.3732 17.2916 40.5252 16.9876 40.5252 16.6196C40.5252 16.3636 40.4212 16.1396 40.2132 15.9476C40.0052 15.7396 39.6932 15.5796 39.2772 15.4676L36.7092 14.8676C35.5572 14.5956 34.6852 14.1556 34.0932 13.5476C33.5172 12.9396 33.2292 12.1636 33.2292 11.2196C33.2292 10.0356 33.6692 9.09164 34.5492 8.38764C35.4292 7.66764 36.5332 7.30764 37.8612 7.30764C39.4452 7.30764 40.7012 7.72364 41.6292 8.55564C42.5732 9.37164 43.1332 10.3716 43.3092 11.5556H40.3572C40.1972 10.9156 39.8612 10.4516 39.3492 10.1636C38.8532 9.87564 38.3492 9.73164 37.8372 9.73164C37.3412 9.73164 36.9572 9.84364 36.6852 10.0676C36.4292 10.2916 36.3012 10.5636 36.3012 10.8836C36.3012 11.2036 36.4212 11.4756 36.6612 11.6996C36.9172 11.9236 37.2932 12.0916 37.7892 12.2036L40.1652 12.7796C41.3012 13.0516 42.1492 13.4916 42.7092 14.0996C43.2852 14.7076 43.5732 15.4676 43.5732 16.3796C43.5732 17.4836 43.1412 18.4196 42.2772 19.1876C41.4132 19.9396 40.2372 20.3156 38.7492 20.3156Z" fill="white"/>
<path d="M47.1644 6.29964C46.6684 6.29964 46.2444 6.13164 45.8924 5.79564C45.5564 5.45964 45.3884 5.04364 45.3884 4.54764C45.3884 4.05164 45.5564 3.64364 45.8924 3.32364C46.2444 2.98764 46.6684 2.81964 47.1644 2.81964C47.6604 2.81964 48.0684 2.98764 48.3884 3.32364C48.7244 3.64364 48.8924 4.05164 48.8924 4.54764C48.8924 5.04364 48.7244 5.45964 48.3884 5.79564C48.0684 6.13164 47.6604 6.29964 47.1644 6.29964ZM48.7244 7.61964V20.0276H45.5804V7.61964H48.7244Z" fill="white"/>
<path d="M64.4852 7.61964V20.5076C64.4852 21.8676 64.0532 22.9636 63.1892 23.7956C62.3412 24.6436 61.2132 25.0676 59.8052 25.0676H56.3252V22.4276H59.0852C59.8212 22.4276 60.3812 22.2356 60.7652 21.8516C61.1492 21.4836 61.3412 20.9556 61.3412 20.2676V18.7556C60.7972 19.1876 60.1972 19.5316 59.5412 19.7876C58.8852 20.0276 58.1892 20.1476 57.4532 20.1476C57.0532 20.1476 56.6612 20.1076 56.2772 20.0276C55.8932 19.9636 55.5252 19.8676 55.1732 19.7396C54.8212 19.6116 54.4772 19.4596 54.1412 19.2836C53.8212 19.0916 53.5172 18.8836 53.2292 18.6596C52.9572 18.4196 52.7012 18.1636 52.4612 17.8916C52.2212 17.6036 52.0052 17.2996 51.8132 16.9796C51.6212 16.6596 51.4612 16.3236 51.3332 15.9716C51.2052 15.6196 51.1012 15.2596 51.0212 14.8916C50.9572 14.5076 50.9252 14.1156 50.9252 13.7156C50.9252 13.3156 50.9572 12.9316 51.0212 12.5636C51.1012 12.1796 51.2052 11.8116 51.3332 11.4596C51.4612 11.1076 51.6212 10.7716 51.8132 10.4516C52.0052 10.1316 52.2212 9.83564 52.4612 9.56364C52.7012 9.27564 52.9652 9.01964 53.2532 8.79564C53.5412 8.55564 53.8452 8.34764 54.1652 8.17164C54.4852 7.97964 54.8212 7.81964 55.1732 7.69164C55.5252 7.56364 55.8932 7.46764 56.2772 7.40364C56.6612 7.32364 57.0532 7.28364 57.4532 7.28364C58.1892 7.28364 58.8852 7.41164 59.5412 7.66764C60.2132 7.90764 60.8212 8.25164 61.3652 8.69964V7.61964H64.4852ZM54.0452 13.7156C54.0452 14.7236 54.4052 15.5876 55.1252 16.3076C55.8452 17.0276 56.7092 17.3876 57.7172 17.3876C58.7412 17.3876 59.6052 17.0276 60.3092 16.3076C61.0292 15.5876 61.3892 14.7236 61.3892 13.7156C61.3892 12.6916 61.0292 11.8196 60.3092 11.0996C59.5892 10.3796 58.7252 10.0196 57.7172 10.0196C56.7092 10.0196 55.8452 10.3876 55.1252 11.1236C54.4052 11.8436 54.0452 12.7076 54.0452 13.7156Z" fill="white"/>
<path d="M78.5665 12.1316V20.0276H75.4225V12.7556C75.4225 11.9556 75.1825 11.3156 74.7025 10.8356C74.2385 10.3396 73.6225 10.0916 72.8545 10.0916C72.1025 10.0916 71.4785 10.3316 70.9825 10.8116C70.5025 11.2916 70.2625 11.9396 70.2625 12.7556V20.0276H67.1185V7.61964H70.2625V8.67564C70.6945 8.22764 71.1985 7.88364 71.7745 7.64364C72.3665 7.40364 72.9985 7.28364 73.6705 7.28364C74.0385 7.28364 74.3825 7.31564 74.7025 7.37964C75.0385 7.44364 75.3585 7.53964 75.6625 7.66764C75.9665 7.77964 76.2465 7.92364 76.5025 8.09964C76.7585 8.27564 76.9905 8.47564 77.1985 8.69964C77.4225 8.90764 77.6145 9.14764 77.7745 9.41964C77.9505 9.67564 78.0945 9.94764 78.2065 10.2356C78.3185 10.5236 78.4065 10.8276 78.4705 11.1476C78.5345 11.4676 78.5665 11.7956 78.5665 12.1316Z" fill="white"/>
<path d="M91.5164 20.3156C89.9004 20.3156 88.5964 19.9156 87.6044 19.1156C86.6284 18.2996 86.0204 17.2996 85.7804 16.1156H88.7564C88.9164 16.7396 89.2444 17.1956 89.7404 17.4836C90.2524 17.7556 90.8444 17.8916 91.5164 17.8916C92.0924 17.8916 92.5324 17.7716 92.8364 17.5316C93.1404 17.2916 93.2924 16.9876 93.2924 16.6196C93.2924 16.3636 93.1884 16.1396 92.9804 15.9476C92.7724 15.7396 92.4604 15.5796 92.0444 15.4676L89.4764 14.8676C88.3244 14.5956 87.4524 14.1556 86.8604 13.5476C86.2844 12.9396 85.9964 12.1636 85.9964 11.2196C85.9964 10.0356 86.4364 9.09165 87.3164 8.38765C88.1964 7.66765 89.3004 7.30765 90.6284 7.30765C92.2124 7.30765 93.4684 7.72365 94.3964 8.55565C95.3404 9.37165 95.9004 10.3716 96.0764 11.5556H93.1244C92.9644 10.9156 92.6284 10.4516 92.1164 10.1636C91.6204 9.87565 91.1164 9.73165 90.6044 9.73165C90.1084 9.73165 89.7244 9.84365 89.4524 10.0676C89.1964 10.2916 89.0684 10.5636 89.0684 10.8836C89.0684 11.2036 89.1884 11.4756 89.4284 11.6996C89.6844 11.9236 90.0604 12.0916 90.5564 12.2036L92.9324 12.7796C94.0684 13.0516 94.9164 13.4916 95.4764 14.0996C96.0524 14.7076 96.3404 15.4676 96.3404 16.3796C96.3404 17.4836 95.9084 18.4196 95.0444 19.1876C94.1804 19.9396 93.0044 20.3156 91.5164 20.3156Z" fill="#93A2FC"/>
<path d="M98.3476 7.61965H101.468V8.79565C102.012 8.33165 102.628 7.97165 103.316 7.71565C104.004 7.44365 104.724 7.30765 105.476 7.30765C105.892 7.30765 106.292 7.34765 106.676 7.42765C107.06 7.49165 107.436 7.58765 107.804 7.71565C108.172 7.84365 108.516 8.00365 108.836 8.19565C109.156 8.38765 109.46 8.60365 109.748 8.84365C110.036 9.08365 110.3 9.34765 110.54 9.63565C110.796 9.92365 111.02 10.2276 111.212 10.5476C111.404 10.8676 111.564 11.2116 111.692 11.5796C111.82 11.9316 111.916 12.2996 111.98 12.6836C112.06 13.0516 112.1 13.4356 112.1 13.8356C112.1 14.2356 112.06 14.6276 111.98 15.0116C111.916 15.3956 111.82 15.7636 111.692 16.1156C111.564 16.4676 111.404 16.8036 111.212 17.1236C111.02 17.4436 110.796 17.7476 110.54 18.0356C110.3 18.3236 110.036 18.5876 109.748 18.8276C109.46 19.0676 109.156 19.2836 108.836 19.4756C108.516 19.6676 108.172 19.8276 107.804 19.9556C107.436 20.0836 107.06 20.1796 106.676 20.2436C106.292 20.3236 105.892 20.3636 105.476 20.3636C104.724 20.3636 104.004 20.2356 103.316 19.9796C102.644 19.7076 102.036 19.3476 101.492 18.8996V25.0676H98.3476V7.61965ZM101.444 13.8356C101.444 14.8916 101.812 15.7876 102.548 16.5236C103.284 17.2436 104.172 17.6036 105.212 17.6036C106.236 17.6036 107.116 17.2436 107.852 16.5236C108.604 15.7876 108.98 14.8916 108.98 13.8356C108.98 12.7956 108.604 11.9076 107.852 11.1716C107.116 10.4196 106.236 10.0436 105.212 10.0436C104.172 10.0436 103.284 10.4196 102.548 11.1716C101.812 11.9076 101.444 12.7956 101.444 13.8356Z" fill="#93A2FC"/>
<path d="M113.864 13.8116C113.864 13.4276 113.896 13.0516 113.96 12.6836C114.024 12.3156 114.12 11.9556 114.248 11.6036C114.376 11.2516 114.528 10.9156 114.704 10.5956C114.896 10.2756 115.104 9.97165 115.328 9.68365C115.568 9.39565 115.824 9.13165 116.096 8.89165C116.384 8.65165 116.68 8.43565 116.984 8.24365C117.304 8.05165 117.64 7.89165 117.992 7.76365C118.36 7.61965 118.736 7.51565 119.12 7.45165C119.504 7.37165 119.896 7.33165 120.296 7.33165C120.76 7.33165 121.208 7.37165 121.64 7.45165C122.072 7.53165 122.48 7.65165 122.864 7.81165C123.248 7.97165 123.608 8.17165 123.944 8.41165C124.28 8.63565 124.584 8.89965 124.856 9.20365C125.144 9.49165 125.4 9.81165 125.624 10.1636C125.848 10.5156 126.032 10.8916 126.176 11.2916C126.336 11.6916 126.456 12.1156 126.536 12.5636C126.616 13.0116 126.656 13.4756 126.656 13.9556V14.8676H117.08C117.288 15.6676 117.704 16.3316 118.328 16.8596C118.952 17.3876 119.696 17.6516 120.56 17.6516C121.216 17.6516 121.808 17.5316 122.336 17.2916C122.88 17.0356 123.376 16.6116 123.824 16.0196L126.008 17.6516C125.384 18.4996 124.608 19.1636 123.68 19.6436C122.768 20.1076 121.736 20.3396 120.584 20.3396C120.168 20.3396 119.76 20.3076 119.36 20.2436C118.96 20.1796 118.576 20.0836 118.208 19.9556C117.84 19.8276 117.488 19.6756 117.152 19.4996C116.816 19.3076 116.504 19.0996 116.216 18.8756C115.928 18.6356 115.656 18.3796 115.4 18.1076C115.16 17.8196 114.944 17.5156 114.752 17.1956C114.56 16.8756 114.4 16.5396 114.272 16.1876C114.144 15.8196 114.04 15.4356 113.96 15.0356C113.896 14.6356 113.864 14.2276 113.864 13.8116ZM120.224 10.0196C119.488 10.0196 118.84 10.2436 118.28 10.6916C117.72 11.1236 117.336 11.7156 117.128 12.4676H123.488C123.264 11.6996 122.848 11.0996 122.24 10.6676C121.648 10.2356 120.976 10.0196 120.224 10.0196Z" fill="#93A2FC"/>
<path d="M131.574 13.8116C131.574 14.8516 131.934 15.7396 132.654 16.4756C133.39 17.2116 134.262 17.5796 135.27 17.5796C135.926 17.5796 136.518 17.4356 137.046 17.1476C137.59 16.8596 138.038 16.4676 138.39 15.9716L140.622 17.6036C139.998 18.4196 139.246 19.0836 138.366 19.5956C137.502 20.0916 136.47 20.3396 135.27 20.3396C134.838 20.3396 134.422 20.2996 134.022 20.2196C133.622 20.1556 133.23 20.0596 132.846 19.9316C132.478 19.8036 132.126 19.6436 131.79 19.4516C131.454 19.2596 131.134 19.0436 130.83 18.8036C130.542 18.5636 130.27 18.2996 130.014 18.0116C129.774 17.7236 129.558 17.4196 129.366 17.0996C129.174 16.7796 129.006 16.4436 128.862 16.0916C128.734 15.7396 128.63 15.3716 128.55 14.9876C128.486 14.6036 128.454 14.2116 128.454 13.8116C128.454 13.4116 128.486 13.0196 128.55 12.6356C128.63 12.2516 128.734 11.8836 128.862 11.5316C129.006 11.1796 129.174 10.8436 129.366 10.5236C129.558 10.2036 129.774 9.90765 130.014 9.63565C130.27 9.34765 130.542 9.08365 130.83 8.84365C131.134 8.60365 131.454 8.38765 131.79 8.19565C132.126 8.00365 132.478 7.84365 132.846 7.71565C133.23 7.58765 133.622 7.49165 134.022 7.42765C134.422 7.34765 134.838 7.30765 135.27 7.30765C136.47 7.30765 137.502 7.56365 138.366 8.07565C139.246 8.57165 139.998 9.22765 140.622 10.0436L138.39 11.6756C138.038 11.1796 137.59 10.7876 137.046 10.4996C136.518 10.2116 135.926 10.0676 135.27 10.0676C134.262 10.0676 133.39 10.4356 132.654 11.1716C131.934 11.8916 131.574 12.7716 131.574 13.8116Z" fill="#93A2FC"/>
<path d="M147.413 20.3156C145.797 20.3156 144.493 19.9156 143.501 19.1156C142.525 18.2996 141.917 17.2996 141.677 16.1156H144.653C144.813 16.7396 145.141 17.1956 145.637 17.4836C146.149 17.7556 146.741 17.8916 147.413 17.8916C147.989 17.8916 148.429 17.7716 148.733 17.5316C149.037 17.2916 149.189 16.9876 149.189 16.6196C149.189 16.3636 149.085 16.1396 148.877 15.9476C148.669 15.7396 148.357 15.5796 147.941 15.4676L145.373 14.8676C144.221 14.5956 143.349 14.1556 142.757 13.5476C142.181 12.9396 141.893 12.1636 141.893 11.2196C141.893 10.0356 142.333 9.09165 143.213 8.38765C144.093 7.66765 145.197 7.30765 146.525 7.30765C148.109 7.30765 149.365 7.72365 150.293 8.55565C151.237 9.37165 151.797 10.3716 151.973 11.5556H149.021C148.861 10.9156 148.525 10.4516 148.013 10.1636C147.517 9.87565 147.013 9.73165 146.501 9.73165C146.005 9.73165 145.621 9.84365 145.349 10.0676C145.093 10.2916 144.965 10.5636 144.965 10.8836C144.965 11.2036 145.085 11.4756 145.325 11.6996C145.581 11.9236 145.957 12.0916 146.453 12.2036L148.829 12.7796C149.965 13.0516 150.813 13.4916 151.373 14.0996C151.949 14.7076 152.237 15.4676 152.237 16.3796C152.237 17.4836 151.805 18.4196 150.941 19.1876C150.077 19.9396 148.901 20.3156 147.413 20.3156Z" fill="#93A2FC"/>
</svg>
