<svg width="76" height="27" viewBox="0 0 76 27" fill="none" xmlns="http://www.w3.org/2000/svg">
<path d="M2.58997 15.676V7.78001H5.73397V15.052C5.73397 15.82 5.96597 16.46 6.42997 16.972C6.90997 17.468 7.53397 17.716 8.30197 17.716C9.06997 17.716 9.69397 17.468 10.174 16.972C10.654 16.476 10.894 15.836 10.894 15.052V7.78001H14.038V20.188H10.894V19.084C10.462 19.532 9.94997 19.876 9.35797 20.116C8.78197 20.356 8.15797 20.476 7.48597 20.476C7.11797 20.476 6.76597 20.444 6.42997 20.38C6.10997 20.316 5.79797 20.228 5.49397 20.116C5.18997 19.988 4.90997 19.844 4.65397 19.684C4.39797 19.508 4.15797 19.308 3.93397 19.084C3.72597 18.86 3.53397 18.628 3.35797 18.388C3.19797 18.132 3.06197 17.86 2.94997 17.572C2.83797 17.268 2.74997 16.964 2.68597 16.66C2.62197 16.34 2.58997 16.012 2.58997 15.676Z" fill="black"/>
<path d="M16.1592 14.98H19.3032C19.4152 15.844 19.7752 16.532 20.3832 17.044C21.0072 17.54 21.8312 17.788 22.8552 17.788C23.7832 17.788 24.4872 17.588 24.9672 17.188C25.4472 16.788 25.6872 16.292 25.6872 15.7C25.6872 15.204 25.5032 14.78 25.1352 14.428C24.7672 14.06 24.2632 13.796 23.6232 13.636L20.7672 12.916C19.2792 12.532 18.1592 11.948 17.4072 11.164C16.6712 10.38 16.3032 9.36401 16.3032 8.11601C16.3032 7.73201 16.3352 7.37201 16.3992 7.03601C16.4792 6.68401 16.5912 6.35601 16.7352 6.05201C16.8952 5.74801 17.0712 5.46801 17.2632 5.21201C17.4712 4.94001 17.7032 4.69201 17.9592 4.46801C18.2312 4.24401 18.5192 4.05201 18.8232 3.89201C19.1432 3.71601 19.4712 3.57201 19.8072 3.46001C20.1592 3.34801 20.5272 3.26001 20.9112 3.19601C21.2952 3.13201 21.6952 3.10001 22.1112 3.10001C23.8392 3.10001 25.2792 3.60401 26.4312 4.61201C27.5832 5.60401 28.2712 6.89201 28.4952 8.47601H25.3272C25.1512 7.66001 24.7912 7.01201 24.2472 6.53201C23.7032 6.03601 22.9832 5.78801 22.0872 5.78801C21.3512 5.78801 20.7352 5.97201 20.2392 6.34001C19.7592 6.70801 19.5192 7.22001 19.5192 7.87601C19.5192 8.42001 19.7032 8.86001 20.0712 9.19601C20.4392 9.51601 20.9432 9.75601 21.5832 9.91601L24.4152 10.66C25.9832 11.06 27.1192 11.644 27.8232 12.412C28.5432 13.18 28.9032 14.188 28.9032 15.436C28.9032 15.788 28.8632 16.132 28.7832 16.468C28.7192 16.804 28.6152 17.124 28.4712 17.428C28.3272 17.732 28.1512 18.02 27.9432 18.292C27.7512 18.548 27.5192 18.796 27.2472 19.036C26.9912 19.26 26.7032 19.46 26.3832 19.636C26.0632 19.812 25.7112 19.964 25.3272 20.092C24.9592 20.22 24.5672 20.316 24.1512 20.38C23.7352 20.444 23.2952 20.476 22.8312 20.476C22.3672 20.476 21.9192 20.444 21.4872 20.38C21.0712 20.316 20.6632 20.22 20.2632 20.092C19.8792 19.948 19.5112 19.788 19.1592 19.612C18.8232 19.42 18.5032 19.204 18.1992 18.964C17.9112 18.708 17.6472 18.436 17.4072 18.148C17.1832 17.86 16.9832 17.548 16.8072 17.212C16.6312 16.876 16.4872 16.524 16.3752 16.156C16.2632 15.772 16.1912 15.38 16.1592 14.98Z" fill="#2428F7"/>
<path d="M31.1359 7.78001H34.2559V8.95601C34.7999 8.49201 35.4159 8.13201 36.1039 7.87601C36.7919 7.60401 37.5119 7.46801 38.2639 7.46801C38.6799 7.46801 39.0799 7.50801 39.4639 7.58801C39.8479 7.65201 40.2239 7.74801 40.5919 7.87601C40.9599 8.00401 41.3039 8.16401 41.6239 8.35601C41.9439 8.54801 42.2479 8.76401 42.5359 9.00401C42.8239 9.24401 43.0879 9.50801 43.3279 9.79601C43.5839 10.084 43.8079 10.388 43.9999 10.708C44.1919 11.028 44.3519 11.372 44.4799 11.74C44.6079 12.092 44.7039 12.46 44.7679 12.844C44.8479 13.212 44.8879 13.596 44.8879 13.996C44.8879 14.396 44.8479 14.788 44.7679 15.172C44.7039 15.556 44.6079 15.924 44.4799 16.276C44.3519 16.628 44.1919 16.964 43.9999 17.284C43.8079 17.604 43.5839 17.908 43.3279 18.196C43.0879 18.484 42.8239 18.748 42.5359 18.988C42.2479 19.228 41.9439 19.444 41.6239 19.636C41.3039 19.828 40.9599 19.988 40.5919 20.116C40.2239 20.244 39.8479 20.34 39.4639 20.404C39.0799 20.484 38.6799 20.524 38.2639 20.524C37.5119 20.524 36.7919 20.396 36.1039 20.14C35.4319 19.868 34.8239 19.508 34.2799 19.06V25.228H31.1359V7.78001ZM34.2319 13.996C34.2319 15.052 34.5999 15.948 35.3359 16.684C36.0719 17.404 36.9599 17.764 37.9999 17.764C39.0239 17.764 39.9039 17.404 40.6399 16.684C41.3919 15.948 41.7679 15.052 41.7679 13.996C41.7679 12.956 41.3919 12.068 40.6399 11.332C39.9039 10.58 39.0239 10.204 37.9999 10.204C36.9599 10.204 36.0719 10.58 35.3359 11.332C34.5999 12.068 34.2319 12.956 34.2319 13.996Z" fill="#2428F7"/>
<path d="M46.6527 13.972C46.6527 13.588 46.6847 13.212 46.7487 12.844C46.8127 12.476 46.9087 12.116 47.0367 11.764C47.1647 11.412 47.3167 11.076 47.4927 10.756C47.6847 10.436 47.8927 10.132 48.1167 9.84401C48.3567 9.55601 48.6127 9.29201 48.8847 9.05201C49.1727 8.81201 49.4687 8.59601 49.7727 8.40401C50.0927 8.21201 50.4287 8.05201 50.7807 7.92401C51.1487 7.78001 51.5247 7.67601 51.9087 7.61201C52.2927 7.53201 52.6847 7.49201 53.0847 7.49201C53.5487 7.49201 53.9967 7.53201 54.4287 7.61201C54.8607 7.69201 55.2687 7.81201 55.6527 7.97201C56.0367 8.13201 56.3967 8.33201 56.7327 8.57201C57.0687 8.79601 57.3727 9.06001 57.6447 9.36401C57.9327 9.65201 58.1887 9.97201 58.4127 10.324C58.6367 10.676 58.8207 11.052 58.9647 11.452C59.1247 11.852 59.2447 12.276 59.3247 12.724C59.4047 13.172 59.4447 13.636 59.4447 14.116V15.028H49.8687C50.0767 15.828 50.4927 16.492 51.1167 17.02C51.7407 17.548 52.4847 17.812 53.3487 17.812C54.0047 17.812 54.5967 17.692 55.1247 17.452C55.6687 17.196 56.1647 16.772 56.6127 16.18L58.7967 17.812C58.1727 18.66 57.3967 19.324 56.4687 19.804C55.5567 20.268 54.5247 20.5 53.3727 20.5C52.9567 20.5 52.5487 20.468 52.1487 20.404C51.7487 20.34 51.3647 20.244 50.9967 20.116C50.6287 19.988 50.2767 19.836 49.9407 19.66C49.6047 19.468 49.2927 19.26 49.0047 19.036C48.7167 18.796 48.4447 18.54 48.1887 18.268C47.9487 17.98 47.7327 17.676 47.5407 17.356C47.3487 17.036 47.1887 16.7 47.0607 16.348C46.9327 15.98 46.8287 15.596 46.7487 15.196C46.6847 14.796 46.6527 14.388 46.6527 13.972ZM53.0127 10.18C52.2767 10.18 51.6287 10.404 51.0687 10.852C50.5087 11.284 50.1247 11.876 49.9167 12.628H56.2767C56.0527 11.86 55.6367 11.26 55.0287 10.828C54.4367 10.396 53.7647 10.18 53.0127 10.18Z" fill="#2428F7"/>
<path d="M64.362 13.972C64.362 15.012 64.722 15.9 65.442 16.636C66.178 17.372 67.05 17.74 68.058 17.74C68.714 17.74 69.306 17.596 69.834 17.308C70.378 17.02 70.826 16.628 71.178 16.132L73.41 17.764C72.786 18.58 72.034 19.244 71.154 19.756C70.29 20.252 69.258 20.5 68.058 20.5C67.626 20.5 67.21 20.46 66.81 20.38C66.41 20.316 66.018 20.22 65.634 20.092C65.266 19.964 64.914 19.804 64.578 19.612C64.242 19.42 63.922 19.204 63.618 18.964C63.33 18.724 63.058 18.46 62.802 18.172C62.562 17.884 62.346 17.58 62.154 17.26C61.962 16.94 61.794 16.604 61.65 16.252C61.522 15.9 61.418 15.532 61.338 15.148C61.274 14.764 61.242 14.372 61.242 13.972C61.242 13.572 61.274 13.18 61.338 12.796C61.418 12.412 61.522 12.044 61.65 11.692C61.794 11.34 61.962 11.004 62.154 10.684C62.346 10.364 62.562 10.068 62.802 9.79601C63.058 9.50801 63.33 9.24401 63.618 9.00401C63.922 8.76401 64.242 8.54801 64.578 8.35601C64.914 8.16401 65.266 8.00401 65.634 7.87601C66.018 7.74801 66.41 7.65201 66.81 7.58801C67.21 7.50801 67.626 7.46801 68.058 7.46801C69.258 7.46801 70.29 7.72401 71.154 8.23601C72.034 8.73201 72.786 9.38801 73.41 10.204L71.178 11.836C70.826 11.34 70.378 10.948 69.834 10.66C69.306 10.372 68.714 10.228 68.058 10.228C67.05 10.228 66.178 10.596 65.442 11.332C64.722 12.052 64.362 12.932 64.362 13.972Z" fill="#2428F7"/>
</svg>
